<svg
      width="140"
      height="71"
      viewBox="0 0 140 71"
      fill="none"
      xmlns="http://www.w3.org/2000/svg"
    >
      <path
        d="M12.44 25.115C12.44 25.5817 12.545 25.9667 12.755 26.27C12.9883 26.5733 13.2567 26.8183 13.56 27.005C13.8867 27.1917 14.225 27.3317 14.575 27.425C14.9483 27.495 15.275 27.53 15.555 27.53V29C15.275 29 14.925 28.9883 14.505 28.965C14.085 28.9183 13.6533 28.8717 13.21 28.825C12.7667 28.7783 12.335 28.7433 11.915 28.72C11.495 28.6733 11.145 28.65 10.865 28.65C10.585 28.65 10.235 28.6733 9.815 28.72C9.395 28.7433 8.96333 28.7783 8.52 28.825C8.07667 28.8717 7.645 28.9183 7.225 28.965C6.805 28.9883 6.455 29 6.175 29V27.53C6.47833 27.53 6.81667 27.495 7.19 27.425C7.56333 27.3317 7.90167 27.1917 8.205 27.005C8.50833 26.8183 8.765 26.5733 8.975 26.27C9.185 25.9667 9.29 25.5817 9.29 25.115V11.255C9.29 10.3917 9.26667 9.68 9.22 9.12C9.19667 8.53667 9.10333 8.09333 8.94 7.79C8.77667 7.46333 8.54333 7.24167 8.24 7.125C7.93667 6.985 7.51667 6.915 6.98 6.915V5.69C7.56333 5.69 8.065 5.655 8.485 5.585C8.92833 5.515 9.325 5.41 9.675 5.27C10.025 5.13 10.34 4.96667 10.62 4.78C10.9233 4.59333 11.2383 4.395 11.565 4.185H12.44V25.115ZM12.895 0.299998C13.385 0.299998 13.9683 0.323332 14.645 0.369999C15.3217 0.416665 16.0217 0.533332 16.745 0.719999C17.4683 0.883332 18.18 1.14 18.88 1.49C19.58 1.81667 20.21 2.26 20.77 2.82C21.33 3.38 21.7733 4.08 22.1 4.92C22.45 5.73667 22.625 6.72833 22.625 7.895C22.625 9.015 22.4617 9.97167 22.135 10.765C21.8317 11.5583 21.435 12.2233 20.945 12.76C20.455 13.2733 19.9183 13.67 19.335 13.95C18.7517 14.2067 18.18 14.3583 17.62 14.405V14.545C18.53 14.545 19.4633 14.7317 20.42 15.105C21.4 15.4783 22.275 16.0617 23.045 16.855C23.8383 17.625 24.4917 18.6167 25.005 19.83C25.5183 21.02 25.775 22.455 25.775 24.135C25.775 26.025 25.3667 27.6117 24.55 28.895C23.7333 30.1783 22.6717 31.2167 21.365 32.01C20.0583 32.8033 18.565 33.3633 16.885 33.69C15.2283 34.04 13.5483 34.215 11.845 34.215C10.4917 34.215 9.17333 34.11 7.89 33.9C6.60667 33.69 5.46333 33.375 4.46 32.955C3.48 32.535 2.68667 32.01 2.08 31.38C1.47333 30.7733 1.17 30.0733 1.17 29.28C1.17 28.72 1.345 28.3817 1.695 28.265C1.57833 28.195 1.45 28.0433 1.31 27.81C1.17 27.5767 1.04167 27.2967 0.925 26.97C0.808333 26.62 0.703333 26.235 0.61 25.815C0.516667 25.3717 0.47 24.9283 0.47 24.485C0.47 24.135 0.505 23.7383 0.575 23.295C0.668333 22.8283 0.831667 22.385 1.065 21.965C1.32167 21.5217 1.67167 21.125 2.115 20.775C2.58167 20.425 3.18833 20.18 3.935 20.04L4.145 20.215C3.88833 20.7983 3.71333 21.4283 3.62 22.105C3.55 22.7583 3.515 23.3883 3.515 23.995C3.515 25.955 3.83 27.5067 4.46 28.65C5.11333 29.77 5.895 30.6217 6.805 31.205C7.715 31.7883 8.64833 32.15 9.605 32.29C10.585 32.4533 11.4133 32.535 12.09 32.535C13.3267 32.535 14.54 32.395 15.73 32.115C16.92 31.835 17.9817 31.3683 18.915 30.715C19.8717 30.085 20.6417 29.2683 21.225 28.265C21.8083 27.2383 22.1 25.99 22.1 24.52C22.1 22.9567 21.8433 21.6267 21.33 20.53C20.8167 19.41 20.1633 18.5 19.37 17.8C18.5767 17.0767 17.7017 16.5517 16.745 16.225C15.7883 15.8983 14.8667 15.735 13.98 15.735V14.335C14.75 14.335 15.45 14.16 16.08 13.81C16.7333 13.46 17.2817 12.9933 17.725 12.41C18.1683 11.8033 18.5067 11.115 18.74 10.345C18.9967 9.575 19.125 8.77 19.125 7.93C19.125 7.09 18.985 6.30833 18.705 5.585C18.4483 4.86167 18.04 4.24333 17.48 3.73C16.92 3.19333 16.1967 2.785 15.31 2.505C14.4467 2.20167 13.4083 2.05 12.195 2.05C10.5383 2.05 9.185 2.31833 8.135 2.855C7.10833 3.39167 6.29167 4.10333 5.685 4.99C5.10167 5.85333 4.69333 6.83333 4.46 7.93C4.25 9.00333 4.145 10.1 4.145 11.22C3.04833 11.22 2.26667 11.01 1.8 10.59C1.33333 10.17 1.1 9.59833 1.1 8.875C1.1 8.19833 1.26333 7.65 1.59 7.23C1.94 6.81 2.33667 6.6 2.78 6.6C2.59333 6.41333 2.47667 6.16833 2.43 5.865C2.38333 5.53833 2.36 5.28167 2.36 5.095C2.36 4.30167 2.675 3.61333 3.305 3.03C3.95833 2.42333 4.78667 1.92167 5.79 1.525C6.79333 1.105 7.91333 0.801665 9.15 0.614998C10.41 0.404998 11.6583 0.299998 12.895 0.299998ZM50.8191 18.71C50.8191 20.2967 50.4691 21.7433 49.7691 23.05C49.0925 24.3567 48.1708 25.4883 47.0041 26.445C48.0075 26.9117 48.9175 27.145 49.7341 27.145C50.2941 27.145 50.7725 27.04 51.1691 26.83C51.5658 26.5967 51.8925 26.305 52.1491 25.955C52.4058 25.605 52.6041 25.2083 52.7441 24.765C52.8841 24.2983 52.9775 23.82 53.0241 23.33L53.1291 23.225C53.9458 23.435 54.5175 23.7617 54.8441 24.205C55.1941 24.6483 55.3691 25.1267 55.3691 25.64C55.3691 26.27 55.1825 26.7133 54.8091 26.97C54.4591 27.2033 54.1208 27.3783 53.7941 27.495C53.7941 27.915 53.6658 28.2533 53.4091 28.51C53.1525 28.7433 52.8491 28.9183 52.4991 29.035C52.1491 29.175 51.7758 29.2567 51.3791 29.28C51.0058 29.3267 50.6791 29.35 50.3991 29.35C49.5125 29.35 48.6025 29.2217 47.6691 28.965C46.7591 28.685 45.8608 28.3 44.9741 27.81C44.0175 28.3 43.0025 28.685 41.9291 28.965C40.8558 29.2217 39.7475 29.35 38.6041 29.35C37.1575 29.35 35.8625 29.1517 34.7191 28.755C33.5758 28.335 32.5958 27.7633 31.7791 27.04C30.9625 26.3167 30.3325 25.465 29.8891 24.485C29.4691 23.4817 29.2591 22.4083 29.2591 21.265C29.2591 20.4483 29.3641 19.7017 29.5741 19.025C29.7841 18.3483 30.0641 17.73 30.4141 17.17C30.7875 16.61 31.2191 16.085 31.7091 15.595C32.1991 15.105 32.7125 14.65 33.2491 14.23C32.6891 12.97 32.2458 11.7333 31.9191 10.52C31.6158 9.30667 31.4641 8.175 31.4641 7.125C31.4641 6.005 31.6391 5.025 31.9891 4.185C32.3391 3.32166 32.8058 2.61 33.3891 2.05C33.9958 1.46667 34.6725 1.035 35.4191 0.754999C36.1891 0.451665 36.9825 0.299998 37.7991 0.299998C38.6391 0.299998 39.4091 0.451665 40.1091 0.754999C40.8325 1.035 41.4625 1.43167 41.9991 1.945C42.5358 2.45833 42.9558 3.07667 43.2591 3.8C43.5625 4.52333 43.7141 5.31667 43.7141 6.18C43.7141 7.23 43.4925 8.16333 43.0491 8.98C42.6058 9.79667 42.0341 10.5433 41.3341 11.22C40.6575 11.8967 39.8991 12.5383 39.0591 13.145C38.2191 13.7283 37.4025 14.335 36.6091 14.965C37.1225 15.9917 37.6941 16.995 38.3241 17.975C38.9541 18.9317 39.6191 19.8533 40.3191 20.74C41.0425 21.6033 41.7775 22.4083 42.5241 23.155C43.2941 23.9017 44.0641 24.555 44.8341 25.115C45.6508 24.4383 46.3275 23.575 46.8641 22.525C47.4241 21.475 47.7041 20.145 47.7041 18.535C47.7041 17.2283 47.5291 16.33 47.1791 15.84C46.8291 15.35 46.4441 15.105 46.0241 15.105C45.5108 15.105 45.1141 15.3617 44.8341 15.875C44.5541 16.365 44.4141 16.995 44.4141 17.765C44.4141 18.4417 44.5075 18.9083 44.6941 19.165C44.8808 19.4217 45.0558 19.585 45.2191 19.655L45.1841 19.795C44.7875 19.865 44.4491 19.9 44.1691 19.9C43.4458 19.9 42.8391 19.655 42.3491 19.165C41.8591 18.675 41.6141 17.9983 41.6141 17.135C41.6141 16.085 41.9991 15.21 42.7691 14.51C43.5391 13.7867 44.6241 13.425 46.0241 13.425C47.4708 13.425 48.6258 13.8683 49.4891 14.755C50.3758 15.6183 50.8191 16.9367 50.8191 18.71ZM38.7791 27.18C39.3391 27.18 39.9575 27.1217 40.6341 27.005C41.3341 26.8883 42.0341 26.6783 42.7341 26.375C41.1241 25.185 39.6191 23.75 38.2191 22.07C36.8191 20.39 35.5941 18.6283 34.5441 16.785C33.9608 17.415 33.4941 18.1033 33.1441 18.85C32.7941 19.5967 32.6191 20.46 32.6191 21.44C32.6191 22.3267 32.7708 23.12 33.0741 23.82C33.3775 24.52 33.7975 25.1267 34.3341 25.64C34.8941 26.13 35.5475 26.515 36.2941 26.795C37.0641 27.0517 37.8925 27.18 38.7791 27.18ZM34.5091 7.195C34.5091 8.035 34.6025 8.91 34.7891 9.82C34.9758 10.73 35.2441 11.64 35.5941 12.55C36.2708 12.0833 36.9241 11.6167 37.5541 11.15C38.1841 10.66 38.7441 10.1467 39.2341 9.61C39.7241 9.05 40.1091 8.455 40.3891 7.825C40.6925 7.17167 40.8441 6.44833 40.8441 5.655C40.8441 4.55833 40.5758 3.70667 40.0391 3.1C39.5258 2.49333 38.8725 2.19 38.0791 2.19C37.7058 2.19 37.3091 2.27167 36.8891 2.435C36.4691 2.59833 36.0841 2.87833 35.7341 3.275C35.3841 3.64833 35.0925 4.16167 34.8591 4.815C34.6258 5.445 34.5091 6.23833 34.5091 7.195ZM69.5242 25.115C69.5242 25.675 69.6292 26.1183 69.8392 26.445C70.0725 26.7717 70.3408 27.0167 70.6442 27.18C70.9708 27.32 71.3092 27.4133 71.6592 27.46C72.0325 27.5067 72.3592 27.53 72.6392 27.53V29C72.3592 29 72.0092 28.9883 71.5892 28.965C71.1692 28.9183 70.7375 28.8717 70.2942 28.825C69.8508 28.7783 69.4192 28.7433 68.9992 28.72C68.5792 28.6733 68.2292 28.65 67.9492 28.65C67.6692 28.65 67.3192 28.6733 66.8992 28.72C66.4792 28.7433 66.0475 28.7783 65.6042 28.825C65.1608 28.8717 64.7292 28.9183 64.3092 28.965C63.8892 28.9883 63.5392 29 63.2592 29V27.53C63.5625 27.53 63.9008 27.5067 64.2742 27.46C64.6475 27.4133 64.9858 27.32 65.2892 27.18C65.5925 27.0167 65.8492 26.7717 66.0592 26.445C66.2692 26.1183 66.3742 25.675 66.3742 25.115V11.255C66.3742 10.3917 66.3508 9.68 66.3042 9.12C66.2808 8.53667 66.1875 8.09333 66.0242 7.79C65.8608 7.46333 65.6275 7.24167 65.3242 7.125C65.0208 6.985 64.6008 6.915 64.0642 6.915V5.69C64.6475 5.69 65.1492 5.655 65.5692 5.585C66.0125 5.515 66.4092 5.41 66.7592 5.27C67.1092 5.13 67.4242 4.96667 67.7042 4.78C68.0075 4.59333 68.3225 4.395 68.6492 4.185H69.5242V25.115ZM70.0492 0.299998C72.6625 0.299998 74.8792 0.731665 76.6992 1.595C78.5192 2.45833 79.9892 3.64833 81.1092 5.165C82.2525 6.65833 83.0692 8.43167 83.5592 10.485C84.0725 12.515 84.3292 14.7083 84.3292 17.065C84.3292 19.9817 83.9792 22.5133 83.2792 24.66C82.5792 26.8067 81.5525 28.5917 80.1992 30.015C78.8458 31.4383 77.1892 32.4883 75.2292 33.165C73.2925 33.865 71.0875 34.215 68.6142 34.215C67.2842 34.215 65.9892 34.11 64.7292 33.9C63.4925 33.69 62.3958 33.375 61.4392 32.955C60.4825 32.535 59.7125 32.01 59.1292 31.38C58.5458 30.7733 58.2542 30.0733 58.2542 29.28C58.2542 28.72 58.4292 28.3817 58.7792 28.265C58.6625 28.195 58.5342 28.0433 58.3942 27.81C58.2542 27.5767 58.1258 27.2967 58.0092 26.97C57.8925 26.62 57.7875 26.235 57.6942 25.815C57.6008 25.3717 57.5542 24.9283 57.5542 24.485C57.5542 24.135 57.5892 23.7383 57.6592 23.295C57.7525 22.8283 57.9158 22.385 58.1492 21.965C58.4058 21.5217 58.7558 21.125 59.1992 20.775C59.6658 20.425 60.2725 20.18 61.0192 20.04L61.2292 20.215C60.9725 20.7983 60.7975 21.4283 60.7042 22.105C60.6342 22.7583 60.5992 23.3883 60.5992 23.995C60.5992 25.3017 60.7392 26.4217 61.0192 27.355C61.3225 28.2883 61.7075 29.07 62.1742 29.7C62.6408 30.33 63.1658 30.8317 63.7492 31.205C64.3558 31.5783 64.9625 31.8583 65.5692 32.045C66.1992 32.255 66.8058 32.3833 67.3892 32.43C67.9958 32.5 68.5208 32.535 68.9642 32.535C71.0642 32.535 72.8492 32.185 74.3192 31.485C75.8125 30.8083 77.0258 29.8167 77.9592 28.51C78.8925 27.18 79.5692 25.5583 79.9892 23.645C80.4325 21.7317 80.6542 19.55 80.6542 17.1C80.6542 15.1633 80.4675 13.285 80.0942 11.465C79.7208 9.645 79.1025 8.035 78.2392 6.635C77.3758 5.235 76.2325 4.115 74.8092 3.275C73.4092 2.41167 71.6825 1.98 69.6292 1.98C67.8792 1.98 66.4442 2.24833 65.3242 2.785C64.2042 3.29833 63.3058 3.99833 62.6292 4.885C61.9758 5.74833 61.5208 6.74 61.2642 7.86C61.0075 8.95667 60.8792 10.1 60.8792 11.29C59.7825 11.29 59.0008 11.045 58.5342 10.555C58.0675 10.0417 57.8342 9.42333 57.8342 8.7C57.8342 8.02333 57.9975 7.46333 58.3242 7.02C58.6742 6.55333 59.0708 6.32 59.5142 6.32C59.3275 6.13333 59.2108 5.88833 59.1642 5.585C59.1175 5.25833 59.0942 5.00167 59.0942 4.815C59.0942 4.02167 59.4208 3.345 60.0742 2.785C60.7508 2.20167 61.6142 1.735 62.6642 1.385C63.7375 1.01166 64.9158 0.743331 66.1992 0.579999C67.5058 0.393332 68.7892 0.299998 70.0492 0.299998Z"
        fill="#FFF9F9"
      />
      <path
        d="M9.966 61.426C9.966 61.7727 10.018 62.0587 10.122 62.284C10.2433 62.5093 10.382 62.6913 10.538 62.83C10.7113 62.9687 10.902 63.0727 11.11 63.142C11.3353 63.194 11.552 63.22 11.76 63.22V64C11.552 64 11.318 63.9913 11.058 63.974C10.8153 63.9393 10.5553 63.9047 10.278 63.87C10.0007 63.8353 9.732 63.8093 9.472 63.792C9.22933 63.7573 9.004 63.74 8.796 63.74C8.588 63.74 8.354 63.7573 8.094 63.792C7.85133 63.8093 7.59133 63.8353 7.314 63.87C7.03667 63.9047 6.768 63.9393 6.508 63.974C6.26533 63.9913 6.04 64 5.832 64V63.22C6.3 63.22 6.716 63.09 7.08 62.83C7.444 62.57 7.626 62.102 7.626 61.426V57.084C7.626 56.4427 7.60867 55.914 7.574 55.498C7.55667 55.0647 7.48733 54.7353 7.366 54.51C7.24467 54.2673 7.07133 54.1027 6.846 54.016C6.62067 53.912 6.30867 53.86 5.91 53.86V53.21C6.34333 53.21 6.716 53.184 7.028 53.132C7.35733 53.08 7.652 53.002 7.912 52.898C8.172 52.794 8.406 52.6727 8.614 52.534C8.83933 52.3953 9.07333 52.248 9.316 52.092H9.966V54.796C10.382 53.7733 10.876 53.028 11.448 52.56C12.0373 52.0747 12.6353 51.832 13.242 51.832C13.6233 51.832 13.97 51.8927 14.282 52.014C14.594 52.1353 14.75 52.3433 14.75 52.638C15.0967 52.638 15.3653 52.7507 15.556 52.976C15.764 53.2013 15.868 53.5133 15.868 53.912C15.868 54.3627 15.712 54.7613 15.4 55.108C15.088 55.4373 14.568 55.6713 13.84 55.81C13.9093 55.55 13.944 55.29 13.944 55.03C13.944 54.406 13.7967 53.9467 13.502 53.652C13.2247 53.3573 12.9127 53.21 12.566 53.21C12.2887 53.21 11.994 53.3573 11.682 53.652C11.3873 53.9293 11.11 54.3193 10.85 54.822C10.59 55.3247 10.3733 55.914 10.2 56.59C10.044 57.2487 9.966 57.968 9.966 58.748V61.426ZM22.99 63.194C23.25 63.194 23.51 63.168 23.77 63.116C24.03 63.0467 24.2726 62.934 24.498 62.778C24.7406 62.6047 24.9573 62.3707 25.148 62.076C25.356 61.764 25.538 61.3567 25.694 60.854C26.0926 60.854 26.422 60.9493 26.682 61.14C26.942 61.3307 27.072 61.6253 27.072 62.024C27.072 62.388 26.9506 62.7173 26.708 63.012C26.4826 63.3067 26.1706 63.558 25.772 63.766C25.3906 63.9567 24.94 64.104 24.42 64.208C23.9173 64.312 23.3886 64.364 22.834 64.364C21.8806 64.364 21.04 64.2167 20.312 63.922C19.584 63.61 18.9773 63.1853 18.492 62.648C18.0066 62.0933 17.634 61.426 17.374 60.646C17.1313 59.866 17.01 59.008 17.01 58.072C17.01 56.1307 17.5213 54.6053 18.544 53.496C19.5666 52.3867 21.0226 51.832 22.912 51.832C23.1373 51.832 23.3626 51.8407 23.588 51.858C23.8133 51.8753 24.0213 51.9187 24.212 51.988C24.4026 52.04 24.5586 52.1267 24.68 52.248C24.8013 52.352 24.862 52.4907 24.862 52.664C25.122 52.664 25.382 52.716 25.642 52.82C25.9193 52.924 26.1706 53.08 26.396 53.288C26.6386 53.496 26.8293 53.7647 26.968 54.094C27.124 54.406 27.202 54.7873 27.202 55.238C27.202 55.8793 27.046 56.408 26.734 56.824C26.422 57.24 26.0233 57.578 25.538 57.838C25.07 58.0807 24.55 58.254 23.978 58.358C23.4233 58.4447 22.8946 58.488 22.392 58.488C21.82 58.488 21.2826 58.4447 20.78 58.358C20.2946 58.2713 19.8786 58.1673 19.532 58.046V58.15C19.532 58.878 19.5926 59.554 19.714 60.178C19.8353 60.802 20.026 61.3393 20.286 61.79C20.5633 62.2233 20.9186 62.57 21.352 62.83C21.8026 63.0727 22.3486 63.194 22.99 63.194ZM22.704 53.054C21.768 53.054 21.0486 53.392 20.546 54.068C20.0433 54.744 19.7226 55.68 19.584 56.876C19.8786 57.0667 20.2773 57.1967 20.78 57.266C21.3 57.318 21.794 57.344 22.262 57.344C23.198 57.344 23.848 57.1967 24.212 56.902C24.5933 56.6073 24.784 56.096 24.784 55.368C24.784 54.5013 24.5846 53.9033 24.186 53.574C23.7873 53.2273 23.2933 53.054 22.704 53.054ZM35.0952 64.364C34.1592 64.364 33.3359 64.208 32.6252 63.896C31.9145 63.584 31.3165 63.1507 30.8312 62.596C30.3459 62.024 29.9819 61.348 29.7392 60.568C29.4965 59.788 29.3752 58.93 29.3752 57.994C29.3752 56.902 29.5399 55.9747 29.8692 55.212C30.2159 54.432 30.6579 53.7907 31.1952 53.288C31.7499 52.7853 32.3739 52.4213 33.0672 52.196C33.7779 51.9533 34.4972 51.832 35.2252 51.832C36.0052 51.832 36.6985 51.9533 37.3052 52.196C37.9119 52.4213 38.4752 52.8893 38.9952 53.6C39.0992 53.2187 39.2639 52.9327 39.4892 52.742C39.7145 52.534 39.9745 52.3867 40.2692 52.3C40.5639 52.196 40.8759 52.1353 41.2052 52.118C41.5345 52.1007 41.8552 52.092 42.1672 52.092V52.872C41.9419 52.872 41.7512 52.924 41.5952 53.028C41.4565 53.1147 41.3439 53.366 41.2572 53.782C41.1879 54.1807 41.1359 54.7873 41.1012 55.602C41.0839 56.3993 41.0752 57.5087 41.0752 58.93V64.858C41.0752 66.834 40.5812 68.264 39.5932 69.148C38.6225 70.0493 37.0885 70.5 34.9912 70.5C33.7085 70.5 32.7552 70.3613 32.1312 70.084C31.5245 69.8067 31.2212 69.46 31.2212 69.044C30.7705 69.044 30.4499 68.888 30.2592 68.576C30.0685 68.2813 29.9732 67.978 29.9732 67.666C29.9732 67.3713 30.0425 67.1113 30.1812 66.886C30.3199 66.678 30.4932 66.5047 30.7012 66.366C30.9092 66.2273 31.1259 66.1233 31.3512 66.054C31.5939 65.9847 31.8105 65.95 32.0012 65.95C32.0012 66.418 32.0532 66.8513 32.1572 67.25C32.2785 67.666 32.4692 68.0213 32.7292 68.316C32.9892 68.628 33.3185 68.8707 33.7172 69.044C34.1332 69.2347 34.6359 69.33 35.2252 69.33C35.7452 69.33 36.2219 69.252 36.6552 69.096C37.0885 68.94 37.4525 68.68 37.7472 68.316C38.0592 67.952 38.3019 67.4753 38.4752 66.886C38.6485 66.2967 38.7352 65.5687 38.7352 64.702V63.012C38.1459 63.584 37.5392 63.948 36.9152 64.104C36.2912 64.2773 35.6845 64.364 35.0952 64.364ZM35.4852 63.168C36.0745 63.168 36.5945 63.038 37.0452 62.778C37.4959 62.5007 37.8599 62.128 38.1372 61.66C38.4319 61.192 38.6485 60.6547 38.7872 60.048C38.9432 59.424 39.0212 58.7567 39.0212 58.046C39.0212 57.37 38.9519 56.7373 38.8132 56.148C38.6745 55.5413 38.4579 55.0127 38.1632 54.562C37.8685 54.094 37.4959 53.73 37.0452 53.47C36.6119 53.21 36.0832 53.08 35.4592 53.08C34.7832 53.08 34.2112 53.21 33.7432 53.47C33.2752 53.7127 32.9025 54.0593 32.6252 54.51C32.3479 54.9433 32.1485 55.4633 32.0272 56.07C31.9059 56.6593 31.8452 57.3007 31.8452 57.994C31.8452 58.67 31.8972 59.32 32.0012 59.944C32.1225 60.568 32.3219 61.1227 32.5992 61.608C32.8939 62.076 33.2665 62.4573 33.7172 62.752C34.1852 63.0293 34.7745 63.168 35.4852 63.168ZM45.3678 47.984C45.3678 47.464 45.5498 47.0307 45.9138 46.684C46.2778 46.32 46.7112 46.138 47.2138 46.138C47.7165 46.138 48.1412 46.32 48.4878 46.684C48.8518 47.0307 49.0338 47.464 49.0338 47.984C49.0338 48.504 48.8518 48.946 48.4878 49.31C48.1412 49.6567 47.7165 49.83 47.2138 49.83C46.7112 49.83 46.2778 49.6567 45.9138 49.31C45.5498 48.946 45.3678 48.504 45.3678 47.984ZM48.3058 61.426C48.3058 61.7727 48.3578 62.0587 48.4618 62.284C48.5832 62.5093 48.7218 62.6913 48.8778 62.83C49.0512 62.9687 49.2418 63.0727 49.4498 63.142C49.6752 63.194 49.8918 63.22 50.0998 63.22V64C49.8918 64 49.6578 63.9913 49.3978 63.974C49.1552 63.9393 48.8952 63.9047 48.6178 63.87C48.3405 63.8353 48.0718 63.8093 47.8118 63.792C47.5692 63.7573 47.3438 63.74 47.1358 63.74C46.9278 63.74 46.6938 63.7573 46.4338 63.792C46.1912 63.8093 45.9312 63.8353 45.6538 63.87C45.3765 63.9047 45.1078 63.9393 44.8478 63.974C44.6052 63.9913 44.3798 64 44.1718 64V63.22C44.6398 63.22 45.0558 63.09 45.4198 62.83C45.7838 62.57 45.9658 62.102 45.9658 61.426V56.954C45.9658 56.3127 45.9485 55.784 45.9138 55.368C45.8965 54.9347 45.8272 54.6053 45.7058 54.38C45.5845 54.1373 45.4112 53.9727 45.1858 53.886C44.9605 53.782 44.6485 53.73 44.2498 53.73V52.95C44.6832 52.95 45.0472 52.924 45.3418 52.872C45.6538 52.82 45.9312 52.742 46.1738 52.638C46.4165 52.534 46.6418 52.4127 46.8498 52.274C47.0578 52.1353 47.2832 51.988 47.5258 51.832H48.3058V61.426ZM60.5311 54.25C60.5311 54.9087 60.3058 55.394 59.8551 55.706C59.4218 56.0007 58.9278 56.148 58.3731 56.148L58.2951 56.018C58.4165 55.966 58.5465 55.836 58.6851 55.628C58.8238 55.42 58.8931 55.1427 58.8931 54.796C58.8931 54.2067 58.6765 53.7733 58.2431 53.496C57.8098 53.2013 57.2378 53.054 56.5271 53.054C56.3538 53.054 56.1458 53.0713 55.9031 53.106C55.6605 53.1407 55.4265 53.2187 55.2011 53.34C54.9758 53.4613 54.7765 53.6347 54.6031 53.86C54.4471 54.0853 54.3691 54.38 54.3691 54.744C54.3691 55.2293 54.5338 55.6107 54.8631 55.888C55.1925 56.1653 55.5998 56.3993 56.0851 56.59C56.5878 56.7807 57.1251 56.9627 57.6971 57.136C58.2691 57.3093 58.7978 57.5347 59.2831 57.812C59.7858 58.0893 60.2018 58.4533 60.5311 58.904C60.8605 59.3547 61.0251 59.9527 61.0251 60.698C61.0251 61.9113 60.5658 62.83 59.6471 63.454C58.7458 64.0607 57.5498 64.364 56.0591 64.364C55.9551 64.364 55.7905 64.3553 55.5651 64.338C55.3398 64.338 55.1145 64.3207 54.8891 64.286C54.6811 64.2513 54.4905 64.1993 54.3171 64.13C54.1438 64.0607 54.0571 63.9567 54.0571 63.818C53.3291 63.818 52.7831 63.6273 52.4191 63.246C52.0551 62.8647 51.8731 62.3793 51.8731 61.79C51.8731 61.1487 52.0551 60.6893 52.4191 60.412C52.8005 60.1347 53.2338 59.9787 53.7191 59.944L53.7711 60.022C53.6325 60.178 53.5458 60.386 53.5111 60.646C53.4765 60.8887 53.4591 61.0793 53.4591 61.218C53.4591 61.5993 53.5458 61.92 53.7191 62.18C53.8925 62.4227 54.1091 62.622 54.3691 62.778C54.6291 62.9167 54.9151 63.0207 55.2271 63.09C55.5565 63.142 55.8771 63.168 56.1891 63.168C56.2585 63.168 56.4145 63.1593 56.6571 63.142C56.9171 63.1247 57.1771 63.064 57.4371 62.96C57.6971 62.8387 57.9311 62.6567 58.1391 62.414C58.3471 62.154 58.4511 61.7987 58.4511 61.348C58.4511 60.8107 58.2951 60.386 57.9831 60.074C57.6711 59.762 57.2725 59.502 56.7871 59.294C56.3191 59.086 55.8078 58.8953 55.2531 58.722C54.6985 58.5313 54.1785 58.306 53.6931 58.046C53.2251 57.786 52.8351 57.448 52.5231 57.032C52.2111 56.5987 52.0551 56.0267 52.0551 55.316C52.0551 54.6053 52.2111 54.0247 52.5231 53.574C52.8351 53.1233 53.2251 52.768 53.6931 52.508C54.1611 52.248 54.6551 52.0747 55.1751 51.988C55.7125 51.884 56.1978 51.832 56.6311 51.832C57.1858 51.832 57.6105 51.884 57.9051 51.988C58.1998 52.092 58.3471 52.2393 58.3471 52.43C58.6071 52.43 58.8671 52.4647 59.1271 52.534C59.3871 52.586 59.6211 52.6813 59.8291 52.82C60.0371 52.9587 60.2018 53.1493 60.3231 53.392C60.4618 53.6173 60.5311 53.9033 60.5311 54.25ZM66.9909 61.166C66.9909 62.0673 67.0342 62.7953 67.1209 63.35C67.2249 63.9047 67.3549 64.3293 67.5109 64.624C67.6669 64.936 67.8402 65.144 68.0309 65.248C68.2389 65.352 68.4469 65.404 68.6549 65.404C68.8976 65.404 69.0969 65.378 69.2529 65.326C69.4262 65.274 69.5822 65.2047 69.7209 65.118L69.9809 65.352C69.7902 65.8027 69.5302 66.132 69.2009 66.34C68.8889 66.5653 68.5336 66.678 68.1349 66.678C67.6322 66.678 67.2076 66.574 66.8609 66.366C66.5316 66.158 66.3669 65.8807 66.3669 65.534C65.6562 65.534 65.1882 65.2307 64.9629 64.624C64.7549 64.0173 64.6509 63.1247 64.6509 61.946V53.314H62.9349V52.092H63.0909C63.5589 52.092 63.9576 51.988 64.2869 51.78C64.6336 51.5547 64.9282 51.2687 65.1709 50.922C65.4309 50.5753 65.6476 50.1853 65.8209 49.752C66.0116 49.3013 66.1849 48.8507 66.3409 48.4H66.9909V52.092C67.6149 52.0747 68.1262 52.0313 68.5249 51.962C68.9409 51.8753 69.2442 51.7367 69.4349 51.546C69.8336 51.6153 70.0936 51.7627 70.2149 51.988C70.3362 52.196 70.3969 52.378 70.3969 52.534C70.3969 52.742 70.3276 52.924 70.1889 53.08C70.0676 53.2187 69.8942 53.3313 69.6689 53.418C69.4609 53.5047 69.2182 53.5653 68.9409 53.6C68.6636 53.6347 68.3862 53.652 68.1089 53.652C67.7276 53.652 67.3549 53.626 66.9909 53.574V61.166ZM75.3469 61.426C75.3469 61.7727 75.3989 62.0587 75.5029 62.284C75.6242 62.5093 75.7629 62.6913 75.9189 62.83C76.0922 62.9687 76.2829 63.0727 76.4909 63.142C76.7162 63.194 76.9329 63.22 77.1409 63.22V64C76.9329 64 76.6989 63.9913 76.4389 63.974C76.1962 63.9393 75.9362 63.9047 75.6589 63.87C75.3815 63.8353 75.1129 63.8093 74.8529 63.792C74.6102 63.7573 74.3849 63.74 74.1769 63.74C73.9689 63.74 73.7349 63.7573 73.4749 63.792C73.2322 63.8093 72.9722 63.8353 72.6949 63.87C72.4175 63.9047 72.1489 63.9393 71.8889 63.974C71.6462 63.9913 71.4209 64 71.2129 64V63.22C71.6809 63.22 72.0969 63.09 72.4609 62.83C72.8249 62.57 73.0069 62.102 73.0069 61.426V57.084C73.0069 56.4427 72.9895 55.914 72.9549 55.498C72.9375 55.0647 72.8682 54.7353 72.7469 54.51C72.6255 54.2673 72.4522 54.1027 72.2269 54.016C72.0015 53.912 71.6895 53.86 71.2909 53.86V53.21C71.7242 53.21 72.0969 53.184 72.4089 53.132C72.7382 53.08 73.0329 53.002 73.2929 52.898C73.5529 52.794 73.7869 52.6727 73.9949 52.534C74.2202 52.3953 74.4542 52.248 74.6969 52.092H75.3469V54.796C75.7629 53.7733 76.2569 53.028 76.8289 52.56C77.4182 52.0747 78.0162 51.832 78.6229 51.832C79.0042 51.832 79.3509 51.8927 79.6629 52.014C79.9749 52.1353 80.1309 52.3433 80.1309 52.638C80.4775 52.638 80.7462 52.7507 80.9369 52.976C81.1449 53.2013 81.2489 53.5133 81.2489 53.912C81.2489 54.3627 81.0929 54.7613 80.7809 55.108C80.4689 55.4373 79.9489 55.6713 79.2209 55.81C79.2902 55.55 79.3249 55.29 79.3249 55.03C79.3249 54.406 79.1775 53.9467 78.8829 53.652C78.6055 53.3573 78.2935 53.21 77.9469 53.21C77.6695 53.21 77.3749 53.3573 77.0629 53.652C76.7682 53.9293 76.4909 54.3193 76.2309 54.822C75.9709 55.3247 75.7542 55.914 75.5809 56.59C75.4249 57.2487 75.3469 57.968 75.3469 58.748V61.426ZM92.3228 61.426C92.3228 61.7727 92.3748 62.0587 92.4788 62.284C92.6002 62.5093 92.7388 62.6913 92.8948 62.83C93.0682 62.9687 93.2588 63.0727 93.4668 63.142C93.6922 63.194 93.9088 63.22 94.1168 63.22V64C93.7182 64 93.3715 63.9653 93.0768 63.896C92.7995 63.8267 92.4615 63.792 92.0628 63.792C91.6642 63.792 91.3175 63.8007 91.0228 63.818C90.7282 63.8353 90.3815 63.896 89.9828 64V62.622C89.5842 63.0727 89.1075 63.48 88.5528 63.844C87.9982 64.1907 87.3222 64.364 86.5248 64.364C85.8835 64.364 85.2942 64.2773 84.7568 64.104C84.2368 63.9307 83.7862 63.6793 83.4048 63.35C83.0408 63.0207 82.7548 62.6307 82.5468 62.18C82.3388 61.712 82.2348 61.192 82.2348 60.62C82.2348 60.0653 82.3388 59.5713 82.5468 59.138C82.7722 58.6873 83.0842 58.3147 83.4828 58.02C83.8815 57.708 84.3495 57.474 84.8868 57.318C85.4242 57.1447 86.0222 57.058 86.6808 57.058C87.4262 57.058 88.0588 57.136 88.5788 57.292C89.1162 57.4307 89.5842 57.5953 89.9828 57.786V56.824C89.9828 56.3733 89.9482 55.9227 89.8788 55.472C89.8268 55.0213 89.7142 54.614 89.5408 54.25C89.3675 53.886 89.1162 53.5913 88.7868 53.366C88.4575 53.1407 88.0328 53.028 87.5128 53.028C87.2875 53.028 87.0362 53.054 86.7588 53.106C86.4988 53.158 86.2562 53.2533 86.0308 53.392C85.8055 53.5133 85.6148 53.6867 85.4588 53.912C85.3028 54.12 85.2248 54.3887 85.2248 54.718C85.2248 54.8913 85.2508 55.0907 85.3028 55.316C85.0428 55.4547 84.7568 55.524 84.4448 55.524C83.9595 55.524 83.6042 55.394 83.3788 55.134C83.1535 54.8567 83.0408 54.5447 83.0408 54.198C83.0408 53.8513 83.1535 53.548 83.3788 53.288C83.6215 53.0107 83.9595 52.872 84.3928 52.872C84.3928 52.6813 84.4795 52.5167 84.6528 52.378C84.8262 52.2393 85.0515 52.1353 85.3288 52.066C85.6235 51.9793 85.9442 51.9187 86.2908 51.884C86.6375 51.8493 86.9928 51.832 87.3568 51.832C88.1368 51.832 88.8302 51.9273 89.4368 52.118C90.0608 52.2913 90.5808 52.6033 90.9968 53.054C91.4302 53.4873 91.7595 54.0767 91.9848 54.822C92.2102 55.55 92.3228 56.4773 92.3228 57.604V61.426ZM87.2528 63.168C87.8595 63.168 88.3882 62.9947 88.8388 62.648C89.2895 62.284 89.6708 61.8507 89.9828 61.348V58.748C89.5842 58.5573 89.1422 58.4013 88.6568 58.28C88.1715 58.1413 87.6862 58.072 87.2008 58.072C86.5075 58.072 85.9095 58.28 85.4068 58.696C84.9215 59.112 84.6788 59.7013 84.6788 60.464C84.6788 61.2613 84.9128 61.9113 85.3808 62.414C85.8488 62.9167 86.4728 63.168 87.2528 63.168ZM99.2878 61.166C99.2878 62.0673 99.3311 62.7953 99.4178 63.35C99.5218 63.9047 99.6518 64.3293 99.8078 64.624C99.9638 64.936 100.137 65.144 100.328 65.248C100.536 65.352 100.744 65.404 100.952 65.404C101.194 65.404 101.394 65.378 101.55 65.326C101.723 65.274 101.879 65.2047 102.018 65.118L102.278 65.352C102.087 65.8027 101.827 66.132 101.498 66.34C101.186 66.5653 100.83 66.678 100.432 66.678C99.9291 66.678 99.5044 66.574 99.1578 66.366C98.8284 66.158 98.6638 65.8807 98.6638 65.534C97.9531 65.534 97.4851 65.2307 97.2598 64.624C97.0518 64.0173 96.9478 63.1247 96.9478 61.946V53.314H95.2318V52.092H95.3878C95.8558 52.092 96.2544 51.988 96.5838 51.78C96.9304 51.5547 97.2251 51.2687 97.4678 50.922C97.7278 50.5753 97.9444 50.1853 98.1178 49.752C98.3084 49.3013 98.4818 48.8507 98.6378 48.4H99.2878V52.092C99.9118 52.0747 100.423 52.0313 100.822 51.962C101.238 51.8753 101.541 51.7367 101.732 51.546C102.13 51.6153 102.39 51.7627 102.512 51.988C102.633 52.196 102.694 52.378 102.694 52.534C102.694 52.742 102.624 52.924 102.486 53.08C102.364 53.2187 102.191 53.3313 101.966 53.418C101.758 53.5047 101.515 53.5653 101.238 53.6C100.96 53.6347 100.683 53.652 100.406 53.652C100.024 53.652 99.6518 53.626 99.2878 53.574V61.166ZM104.706 47.984C104.706 47.464 104.888 47.0307 105.252 46.684C105.616 46.32 106.049 46.138 106.552 46.138C107.054 46.138 107.479 46.32 107.826 46.684C108.19 47.0307 108.372 47.464 108.372 47.984C108.372 48.504 108.19 48.946 107.826 49.31C107.479 49.6567 107.054 49.83 106.552 49.83C106.049 49.83 105.616 49.6567 105.252 49.31C104.888 48.946 104.706 48.504 104.706 47.984ZM107.644 61.426C107.644 61.7727 107.696 62.0587 107.8 62.284C107.921 62.5093 108.06 62.6913 108.216 62.83C108.389 62.9687 108.58 63.0727 108.788 63.142C109.013 63.194 109.23 63.22 109.438 63.22V64C109.23 64 108.996 63.9913 108.736 63.974C108.493 63.9393 108.233 63.9047 107.956 63.87C107.678 63.8353 107.41 63.8093 107.15 63.792C106.907 63.7573 106.682 63.74 106.474 63.74C106.266 63.74 106.032 63.7573 105.772 63.792C105.529 63.8093 105.269 63.8353 104.992 63.87C104.714 63.9047 104.446 63.9393 104.186 63.974C103.943 63.9913 103.718 64 103.51 64V63.22C103.978 63.22 104.394 63.09 104.758 62.83C105.122 62.57 105.304 62.102 105.304 61.426V56.954C105.304 56.3127 105.286 55.784 105.252 55.368C105.234 54.9347 105.165 54.6053 105.044 54.38C104.922 54.1373 104.749 53.9727 104.524 53.886C104.298 53.782 103.986 53.73 103.588 53.73V52.95C104.021 52.95 104.385 52.924 104.68 52.872C104.992 52.82 105.269 52.742 105.512 52.638C105.754 52.534 105.98 52.4127 106.188 52.274C106.396 52.1353 106.621 51.988 106.864 51.832H107.644V61.426ZM117.217 64.364C116.35 64.364 115.544 64.2167 114.799 63.922C114.071 63.61 113.43 63.1767 112.875 62.622C112.32 62.0673 111.887 61.4 111.575 60.62C111.263 59.84 111.107 58.9647 111.107 57.994C111.107 57.006 111.263 56.1307 111.575 55.368C111.887 54.6053 112.32 53.964 112.875 53.444C113.43 52.9067 114.071 52.508 114.799 52.248C115.544 51.9707 116.35 51.832 117.217 51.832C118.066 51.832 118.864 51.9707 119.609 52.248C120.354 52.508 121.004 52.9067 121.559 53.444C122.114 53.964 122.547 54.6053 122.859 55.368C123.171 56.1307 123.327 57.006 123.327 57.994C123.327 58.982 123.171 59.866 122.859 60.646C122.547 61.426 122.114 62.0933 121.559 62.648C121.004 63.2027 120.354 63.6273 119.609 63.922C118.864 64.2167 118.066 64.364 117.217 64.364ZM117.243 63.168C117.884 63.168 118.43 63.0293 118.881 62.752C119.332 62.4747 119.704 62.102 119.999 61.634C120.294 61.1487 120.51 60.594 120.649 59.97C120.788 59.346 120.857 58.6873 120.857 57.994C120.857 57.318 120.788 56.6767 120.649 56.07C120.51 55.4633 120.294 54.9433 119.999 54.51C119.704 54.0593 119.323 53.704 118.855 53.444C118.404 53.184 117.858 53.054 117.217 53.054C116.576 53.054 116.021 53.184 115.553 53.444C115.102 53.6867 114.73 54.0333 114.435 54.484C114.14 54.9173 113.924 55.4373 113.785 56.044C113.646 56.6507 113.577 57.3007 113.577 57.994C113.577 58.6873 113.646 59.346 113.785 59.97C113.924 60.594 114.14 61.1487 114.435 61.634C114.747 62.102 115.128 62.4747 115.579 62.752C116.047 63.0293 116.602 63.168 117.243 63.168ZM135.463 59.138C135.463 57.9767 135.402 57.006 135.281 56.226C135.177 55.446 135.012 54.822 134.787 54.354C134.561 53.886 134.275 53.5567 133.929 53.366C133.582 53.158 133.183 53.054 132.733 53.054C132.282 53.054 131.849 53.1407 131.433 53.314C131.034 53.4873 130.679 53.7647 130.367 54.146C130.055 54.51 129.803 54.9953 129.613 55.602C129.439 56.1913 129.353 56.902 129.353 57.734V61.426C129.353 61.7727 129.405 62.0587 129.509 62.284C129.63 62.5093 129.769 62.6913 129.925 62.83C130.098 62.9687 130.289 63.0727 130.497 63.142C130.722 63.194 130.939 63.22 131.147 63.22V64C130.939 64 130.705 63.9913 130.445 63.974C130.202 63.9393 129.942 63.9047 129.665 63.87C129.387 63.8353 129.119 63.8093 128.859 63.792C128.616 63.7573 128.391 63.74 128.183 63.74C127.975 63.74 127.741 63.7573 127.481 63.792C127.238 63.8093 126.978 63.8353 126.701 63.87C126.423 63.9047 126.155 63.9393 125.895 63.974C125.652 63.9913 125.427 64 125.219 64V63.22C125.687 63.22 126.103 63.09 126.467 62.83C126.831 62.57 127.013 62.102 127.013 61.426V57.084C127.013 56.4427 126.995 55.914 126.961 55.498C126.943 55.0647 126.874 54.7353 126.753 54.51C126.631 54.2673 126.458 54.1027 126.233 54.016C126.007 53.912 125.695 53.86 125.297 53.86V53.21C125.73 53.21 126.103 53.184 126.415 53.132C126.744 53.08 127.039 53.002 127.299 52.898C127.559 52.794 127.793 52.6727 128.001 52.534C128.226 52.3953 128.46 52.248 128.703 52.092H129.353V53.912C129.682 53.3053 130.133 52.8113 130.705 52.43C131.294 52.0313 131.987 51.832 132.785 51.832C134.501 51.832 135.766 52.352 136.581 53.392C137.395 54.432 137.803 56.1567 137.803 58.566V61.296C137.803 61.6427 137.855 61.9287 137.959 62.154C138.08 62.3793 138.219 62.5613 138.375 62.7C138.548 62.8387 138.739 62.9427 138.947 63.012C139.172 63.064 139.389 63.09 139.597 63.09V64C139.371 64 139.172 63.9913 138.999 63.974C138.825 63.9393 138.643 63.9133 138.453 63.896C138.279 63.8613 138.071 63.8353 137.829 63.818C137.603 63.7833 137.326 63.766 136.997 63.766C136.771 63.766 136.511 63.7833 136.217 63.818C135.939 63.8353 135.601 63.896 135.203 64L134.969 63.558C135.09 63.4367 135.185 63.22 135.255 62.908C135.324 62.5787 135.367 62.206 135.385 61.79C135.419 61.374 135.437 60.932 135.437 60.464C135.454 59.996 135.463 59.554 135.463 59.138Z"
        fill="#FFF9F9"
      />
    </svg>